HIERARCHY
ROOT joint_Root
{
	OFFSET 0.0 0.0 0.0
	CHANNELS 6 Xposition Yposition Zposition Zrotation Xrotation Yrotation 
	JOINT Hips
	{
		OFFSET -17.1583 93.1646 452.98
		CHANNELS 6 Xposition Yposition Zposition Zrotation Xrotation Yrotation 
		JOINT Spine
		{
			OFFSET 15.7357 0.0 0.0
			CHANNELS 6 Xposition Yposition Zposition Zrotation Xrotation Yrotation 
			JOINT Chest
			{
				OFFSET 8.98455 -0.406207 0.0
				CHANNELS 6 Xposition Yposition Zposition Zrotation Xrotation Yrotation 
				JOINT Neck
				{
					OFFSET 16.3773 0.0 0.0
					CHANNELS 6 Xposition Yposition Zposition Zrotation Xrotation Yrotation 
					JOINT Head
					{
						OFFSET 6.45672 0.0 0.0
						CHANNELS 6 Xposition Yposition Zposition Zrotation Xrotation Yrotation 
						End Site
						{
							OFFSET 0.0 0.0 0.0
						}
					}
				}
				JOINT Shoulder_L
				{
					OFFSET 12.9942 -0.242716 4.98039
					CHANNELS 6 Xposition Yposition Zposition Zrotation Xrotation Yrotation 
					JOINT UpperArm_L
					{
						OFFSET 5.34809 0.0 0.0
						CHANNELS 6 Xposition Yposition Zposition Zrotation Xrotation Yrotation 
						JOINT LowerArm_L
						{
							OFFSET 24.3286 1.87007e-05 0.0
							CHANNELS 6 Xposition Yposition Zposition Zrotation Xrotation Yrotation 
							JOINT Hand_L
							{
								OFFSET 22.2916 0.0 0.0
								CHANNELS 6 Xposition Yposition Zposition Zrotation Xrotation Yrotation 
								End Site
								{
									OFFSET 0.0 0.0 0.0
								}
							}
						}
					}
				}
				JOINT Shoulder_R
				{
					OFFSET 12.9945 -0.242716 -4.98039
					CHANNELS 6 Xposition Yposition Zposition Zrotation Xrotation Yrotation 
					JOINT UpperArm_R
					{
						OFFSET -5.34813 0.0 0.0
						CHANNELS 6 Xposition Yposition Zposition Zrotation Xrotation Yrotation 
						JOINT LowerArm_R
						{
							OFFSET -24.3289 0.000322201 0.0
							CHANNELS 6 Xposition Yposition Zposition Zrotation Xrotation Yrotation 
							JOINT Hand_R
							{
								OFFSET -22.2915 -0.000108084 0.0
								CHANNELS 6 Xposition Yposition Zposition Zrotation Xrotation Yrotation 
								End Site
								{
									OFFSET 0.0 0.0 0.0
								}
							}
						}
					}
				}
			}
		}
		JOINT UpperLeg_L
		{
			OFFSET -2.19248 -6.46944 0.0
			CHANNELS 6 Xposition Yposition Zposition Zrotation Xrotation Yrotation 
			JOINT LowerLeg_L
			{
				OFFSET 39.0811 0.0 -1.23785e-05
				CHANNELS 6 Xposition Yposition Zposition Zrotation Xrotation Yrotation 
				JOINT Foot_L
				{
					OFFSET 40.9854 0.0 -1.26872e-05
					CHANNELS 6 Xposition Yposition Zposition Zrotation Xrotation Yrotation 
					JOINT Toes_L
					{
						OFFSET 11.7543 0.0 0.0
						CHANNELS 6 Xposition Yposition Zposition Zrotation Xrotation Yrotation 
						End Site
						{
							OFFSET 0.0 0.0 0.0
						}
					}
				}
			}
		}
		JOINT UpperLeg_R
		{
			OFFSET -2.19251 6.46944 0.0
			CHANNELS 6 Xposition Yposition Zposition Zrotation Xrotation Yrotation 
			JOINT LowerLeg_R
			{
				OFFSET -39.0811 -0.00228153 -0.0401928
				CHANNELS 6 Xposition Yposition Zposition Zrotation Xrotation Yrotation 
				JOINT Foot_R
				{
					OFFSET -40.9854 0.0 0.0
					CHANNELS 6 Xposition Yposition Zposition Zrotation Xrotation Yrotation 
					JOINT Toes_R
					{
						OFFSET -11.7543 0.0 0.0
						CHANNELS 6 Xposition Yposition Zposition Zrotation Xrotation Yrotation 
						End Site
						{
							OFFSET 0.0 0.0 0.0
						}
					}
				}
			}
		}
	}
}
MOTION
Frames:	8
Frame Time:	0.0333333
0.000000 0.000000 0.000000 0.000000 0.000000 -0.000000 -234.087000 91.638700 247.509000 -115.513000 88.989400 -153.726000 15.735700 0.000005 -0.000001 126.754000 86.050300 -126.370000 8.984550 -0.406207 -0.000000 -1.453720 4.694900 0.827824 16.377300 -0.000001 -0.000001 1.851410 1.773120 -1.104140 6.456720 -0.000001 -0.000000 11.559500 0.893987 0.482649 12.994200 -0.242716 4.980390 -92.831900 7.163580 -68.363300 5.348090 -0.000007 -0.000001 -59.062900 -15.143600 15.496900 24.328600 0.000019 0.000005 3.606080 24.150100 -8.756850 22.291600 -0.000001 0.000005 -6.849110 4.988440 7.558650 12.994500 -0.242716 -4.980390 89.106100 3.049610 -73.654600 -5.348130 -0.000001 -0.000004 -69.575400 19.487700 -11.084700 -24.328900 0.000322 -0.000009 0.147809 0.211126 -35.136900 -22.291500 -0.000108 -0.000004 2.925950 5.337180 -0.996796 -2.192480 -6.469440 -0.000000 -176.702000 5.353690 -24.932800 39.081100 -0.000007 -0.000012 0.101767 -0.081871 51.182300 40.985400 -0.000006 -0.000013 -7.969810 11.665500 -55.678900 11.754300 -0.000000 0.000003 0.001705 0.036802 -15.083900 -2.192510 6.469440 -0.000001 -179.932000 3.515840 -178.364000 -39.081100 -0.002282 -0.040193 -0.003443 0.015831 23.118100 -40.985400 0.000008 0.000006 -6.211170 2.876220 -73.631200 -11.754300 -0.000006 -0.000006 -0.001196 0.185819 -9.035390
0.000000 0.000000 0.000000 0.000000 0.000000 -0.000000 -231.731000 92.404100 247.213000 -149.208000 88.788900 -121.209000 15.735700 0.000005 -0.000001 131.920000 86.032300 -131.901000 8.984550 -0.406207 -0.000000 -1.864930 5.298670 0.125016 16.377300 -0.000001 -0.000001 1.385730 1.629960 -1.360270 6.456720 -0.000001 -0.000000 11.119900 0.338215 0.575489 12.994200 -0.242716 4.980390 -92.838000 7.107720 -68.166900 5.348090 -0.000007 -0.000001 -56.104800 -16.015400 15.949800 24.328600 0.000019 0.000005 3.910130 23.668200 -9.662790 22.291600 -0.000001 0.000005 -4.052280 4.941200 8.535380 12.994500 -0.242716 -4.980390 89.258700 2.600310 -74.082300 -5.348130 -0.000001 -0.000004 -68.412200 21.395200 -12.767200 -24.328900 0.000322 -0.000009 0.512505 0.615133 -39.843700 -22.291500 -0.000108 -0.000004 2.672950 5.345750 -1.250080 -2.192480 -6.469440 -0.000000 -176.726000 4.444880 -25.205400 39.081100 -0.000007 -0.000012 0.065384 -0.081502 38.737100 40.985400 -0.000006 -0.000013 -7.457930 13.704500 -56.423100 11.754300 -0.000000 0.000003 0.001724 0.037384 -15.060300 -2.192510 6.469440 -0.000001 178.861000 4.998120 -176.175000 -39.081100 -0.002282 -0.040193 0.005516 -0.006388 18.943600 -40.985400 0.000008 0.000006 -6.213690 4.066480 -70.065500 -11.754300 -0.000006 -0.000006 0.000722 0.154478 -10.308300
0.000000 0.000000 0.000000 0.000000 0.000000 -0.000000 -229.197000 92.662400 246.937000 -161.009000 88.720100 -110.365000 15.735700 0.000005 -0.000001 135.469000 86.072500 -135.612000 8.984550 -0.406207 -0.000000 -2.254430 5.610540 -0.176253 16.377300 -0.000001 -0.000001 0.974223 1.613500 -1.751740 6.456720 -0.000001 -0.000000 10.539500 -0.063127 0.394298 12.994200 -0.242716 4.980390 -92.786400 6.937260 -68.052700 5.348090 -0.000007 -0.000001 -53.766800 -16.197300 16.065100 24.328600 0.000019 0.000005 4.031320 23.227100 -10.132000 22.291600 -0.000001 0.000005 -0.554988 4.886380 9.633180 12.994500 -0.242716 -4.980390 89.398100 2.167020 -74.473300 -5.348130 -0.000001 -0.000004 -66.988800 22.947100 -14.625500 -24.328900 0.000322 -0.000009 0.643933 0.677709 -43.588900 -22.291500 -0.000108 -0.000004 2.426370 5.351020 -1.408060 -2.192480 -6.469440 -0.000000 -176.517000 2.834000 -23.809600 39.081100 -0.000007 -0.000012 0.033280 -0.075789 23.707200 40.985400 -0.000006 -0.000013 -7.541540 16.545500 -55.786500 11.754300 -0.000000 0.000003 0.001974 0.045711 -14.722600 -2.192510 6.469440 -0.000001 177.932000 6.993380 -173.968000 -39.081100 -0.002282 -0.040193 0.006593 -0.011652 15.649100 -40.985400 0.000008 0.000006 -6.114660 5.994780 -67.455000 -11.754300 -0.000006 -0.000006 0.001976 0.121875 -11.631000
0.000000 0.000000 0.000000 0.000000 0.000000 -0.000000 -226.339000 92.257100 246.644000 -163.632000 89.033600 -108.404000 15.735700 0.000005 -0.000001 138.017000 86.143700 -138.103000 8.984550 -0.406207 -0.000000 -2.608160 5.738880 -0.040801 16.377300 -0.000001 -0.000001 0.436379 1.698180 -2.248870 6.456720 -0.000001 -0.000000 10.075000 -0.331142 0.044305 12.994200 -0.242716 4.980390 -92.665600 6.597780 -67.942600 5.348090 -0.000007 -0.000001 -52.030100 -16.350700 16.068500 24.328600 0.000019 0.000005 4.057640 22.459800 -10.519000 22.291600 -0.000001 0.000005 2.433510 4.826360 10.810500 12.994500 -0.242716 -4.980390 89.526900 1.744680 -74.825700 -5.348130 -0.000001 -0.000004 -65.598100 23.941600 -16.341300 -24.328900 0.000322 -0.000009 0.722528 0.689113 -46.413300 -22.291500 -0.000108 -0.000004 2.080050 5.351880 -1.433870 -2.192480 -6.469440 -0.000000 -176.253000 0.843555 -21.646900 39.081100 -0.000007 -0.000012 0.011028 -0.072156 8.690100 40.985400 -0.000006 -0.000013 -8.298100 18.925500 -55.553400 11.754300 -0.000000 0.000003 0.002116 0.051431 -14.490600 -2.192510 6.469440 -0.000001 177.389000 8.254510 -172.276000 -39.081100 -0.002282 -0.040193 -0.002971 0.024090 14.660800 -40.985400 0.000008 0.000006 -6.608130 7.728810 -66.497700 -11.754300 -0.000006 -0.000006 0.002488 0.085369 -13.111100
0.000000 0.000000 0.000000 0.000000 0.000000 -0.000000 -223.313000 91.447800 246.219000 -163.395000 89.168800 -109.263000 15.735700 0.000005 -0.000001 140.323000 86.237100 -140.354000 8.984550 -0.406207 -0.000000 -2.966330 5.792810 0.088709 16.377300 -0.000001 -0.000001 -0.211988 1.826680 -2.751410 6.456720 -0.000001 -0.000000 9.774690 -0.553599 -0.408259 12.994200 -0.242716 4.980390 -92.683200 6.741470 -68.236500 5.348090 -0.000007 -0.000001 -50.193300 -17.066800 15.962500 24.328600 0.000019 0.000005 3.819830 20.772000 -10.662600 22.291600 -0.000001 0.000005 4.985200 4.782590 11.638800 12.994500 -0.242716 -4.980390 89.482100 1.949790 -75.119300 -5.348130 -0.000001 -0.000004 -63.820000 24.286000 -17.899200 -24.328900 0.000322 -0.000009 0.362376 0.324104 -48.282200 -22.291500 -0.000108 -0.000004 1.951440 5.353710 -1.488840 -2.192480 -6.469440 -0.000000 -176.149000 0.716499 -23.528800 39.081100 -0.000007 -0.000012 -0.003836 0.061489 3.568700 40.985400 -0.000006 -0.000013 -6.305660 17.898300 -60.065400 11.754300 -0.000000 0.000003 0.002186 0.054611 -14.361600 -2.192510 6.469440 -0.000001 176.802000 8.228140 -171.344000 -39.081100 -0.002282 -0.040193 -0.015494 0.067560 15.568300 -40.985400 0.000008 0.000006 -7.614590 8.534410 -66.783500 -11.754300 -0.000006 -0.000006 0.001716 0.037098 -15.068300
0.000000 0.000000 0.000000 0.000000 0.000000 -0.000000 -219.831000 90.426900 245.559000 165.833000 89.398400 -78.406900 15.735700 0.000005 -0.000001 140.409000 86.165700 -140.314000 8.984550 -0.406207 -0.000000 -2.890420 5.898420 0.339324 16.377300 -0.000001 -0.000001 -0.868187 2.087900 -3.100020 6.456720 -0.000001 -0.000000 9.320330 -0.532732 -0.956336 12.994200 -0.242716 4.980390 -92.942200 7.431960 -68.329900 5.348090 -0.000007 -0.000001 -48.313000 -18.214700 15.527900 24.328600 0.000019 0.000005 3.462110 18.885600 -10.587000 22.291600 -0.000001 0.000005 7.092670 4.767820 11.917100 12.994500 -0.242716 -4.980390 89.314700 2.652830 -75.508800 -5.348130 -0.000001 -0.000004 -62.183300 23.949400 -19.049200 -24.328900 0.000322 -0.000009 0.463863 0.406010 -48.880200 -22.291500 -0.000108 -0.000004 2.040020 5.361890 -1.737280 -2.192480 -6.469440 -0.000000 -176.362000 0.361383 -24.409300 39.081100 -0.000007 -0.000012 -0.003655 0.106249 1.969860 40.985400 -0.000006 -0.000013 -7.623670 13.863200 -62.811300 11.754300 -0.000000 0.000003 0.002227 0.056704 -14.276800 -2.192510 6.469440 -0.000001 176.127000 7.236360 -170.180000 -39.081100 -0.002282 -0.040193 -0.028398 0.098622 17.831400 -40.985400 0.000008 0.000006 -8.653020 9.161760 -67.276400 -11.754300 -0.000006 -0.000006 -0.002870 -0.039125 -18.164200
0.000000 0.000000 0.000000 0.000000 0.000000 -0.000000 -215.798000 89.399200 244.765000 130.092000 89.239300 -42.292900 15.735700 0.000005 -0.000001 140.093000 86.073200 -139.903000 8.984550 -0.406207 -0.000000 -2.744170 6.004660 0.525692 16.377300 -0.000001 -0.000001 -1.488750 2.344060 -3.283670 6.456720 -0.000001 -0.000000 8.998070 -0.374012 -1.219970 12.994200 -0.242716 4.980390 -93.272100 8.330310 -68.465400 5.348090 -0.000007 -0.000001 -47.337800 -18.407900 14.891200 24.328600 0.000019 0.000005 2.924900 15.726900 -10.674600 22.291600 -0.000001 0.000005 9.771620 4.748230 12.277600 12.994500 -0.242716 -4.980390 89.144300 3.405410 -75.886400 -5.348130 -0.000001 -0.000004 -61.887000 22.665900 -19.038700 -24.328900 0.000322 -0.000009 0.821370 0.741965 -47.947100 -22.291500 -0.000108 -0.000004 2.440130 5.375860 -2.167070 -2.192480 -6.469440 -0.000000 -177.336000 -1.123850 -25.253700 39.081100 -0.000007 -0.000012 -0.004071 0.041322 5.625230 40.985400 -0.000006 -0.000013 -8.555600 12.263600 -62.610100 11.754300 -0.000000 0.000003 0.002181 0.054405 -14.370000 -2.192510 6.469440 -0.000001 174.990000 6.680420 -168.781000 -39.081100 -0.002282 -0.040193 -0.037785 0.109678 20.545000 -40.985400 0.000008 0.000006 -9.755550 10.305200 -66.704500 -11.754300 -0.000006 -0.000006 -0.015469 -0.140750 -22.316400
0.000000 0.000000 0.000000 0.000000 0.000000 -0.000000 -211.404000 88.578200 243.755000 152.468000 88.523300 -65.722300 15.735700 0.000005 -0.000001 146.493000 86.508400 -146.584000 8.984550 -0.406207 -0.000000 -3.916610 5.828220 0.018124 16.377300 -0.000001 -0.000001 -1.788240 2.466790 -3.040870 6.456720 -0.000001 -0.000000 9.160840 -0.044713 -1.101650 12.994200 -0.242716 4.980390 -93.421300 8.882040 -68.833700 5.348090 -0.000007 -0.000001 -47.586700 -18.817000 14.170500 24.328600 0.000019 0.000005 2.382350 13.235800 -10.298100 22.291600 -0.000001 0.000005 13.584300 4.709180 12.987100 12.994500 -0.242716 -4.980390 88.990400 4.022220 -75.897100 -5.348130 -0.000001 -0.000004 -63.144300 21.116700 -17.428400 -24.328900 0.000322 -0.000009 0.715883 0.708261 -45.347000 -22.291500 -0.000108 -0.000004 3.748850 5.389490 -2.597200 -2.192480 -6.469440 -0.000000 -179.490000 -0.724602 -33.614300 39.081100 -0.000007 -0.000012 0.039598 -0.096611 22.287400 40.985400 -0.000006 -0.000013 -3.669820 11.387100 -60.312800 11.754300 -0.000000 0.000003 0.001777 0.039013 -14.994200 -2.192510 6.469440 -0.000001 173.169000 6.377470 -168.846000 -39.081100 -0.002282 -0.040193 -0.026501 0.069409 23.247300 -40.985400 0.000008 0.000006 -10.437500 10.631200 -64.770800 -11.754300 -0.000006 -0.000006 -0.044373 -0.277092 -27.968800
